<?xml version="1.0" encoding="UTF-8" standalone="no"?>
<!-- Created with Inkscape (http://www.inkscape.org/) -->

<svg
   width="135.46666mm"
   height="135.46666mm"
   viewBox="0 0 135.46665 135.46666"
   version="1.1"
   id="svg2079"
   xml:space="preserve"
   inkscape:version="1.2.1 (9c6d41e410, 2022-07-14)"
   sodipodi:docname="aci.svg"
   xmlns:inkscape="http://www.inkscape.org/namespaces/inkscape"
   xmlns:sodipodi="http://sodipodi.sourceforge.net/DTD/sodipodi-0.dtd"
   xmlns="http://www.w3.org/2000/svg"
   xmlns:svg="http://www.w3.org/2000/svg"><sodipodi:namedview
     id="namedview2081"
     pagecolor="#505050"
     bordercolor="#ffffff"
     borderopacity="1"
     inkscape:showpageshadow="0"
     inkscape:pageopacity="0"
     inkscape:pagecheckerboard="1"
     inkscape:deskcolor="#505050"
     inkscape:document-units="mm"
     showgrid="false"
     inkscape:zoom="1.5518659"
     inkscape:cx="233.58977"
     inkscape:cy="201.0483"
     inkscape:window-width="1920"
     inkscape:window-height="1043"
     inkscape:window-x="0"
     inkscape:window-y="0"
     inkscape:window-maximized="1"
     inkscape:current-layer="layer1" /><defs
     id="defs2076"><filter
       style="color-interpolation-filters:sRGB"
       inkscape:label="Feather"
       id="filter6208"
       x="-0.26574802"
       y="-0.26574796"
       width="1.531496"
       height="1.5314959"><feGaussianBlur
         stdDeviation="15"
         result="blur"
         id="feGaussianBlur6200" /><feComposite
         in="SourceGraphic"
         in2="blur"
         operator="atop"
         result="composite1"
         id="feComposite6202" /><feComposite
         in2="composite1"
         operator="in"
         result="composite2"
         id="feComposite6204" /><feComposite
         in2="composite2"
         operator="in"
         result="composite3"
         id="feComposite6206" /></filter><filter
       inkscape:collect="always"
       style="color-interpolation-filters:sRGB"
       id="filter7509"
       x="-0.0030150567"
       y="-0.0030150561"
       width="1.0060301"
       height="1.0060301"><feGaussianBlur
         inkscape:collect="always"
         stdDeviation="0.17018321"
         id="feGaussianBlur7511" /></filter><clipPath
       clipPathUnits="userSpaceOnUse"
       id="clipPath9152"><rect
         style="fill:none;fill-opacity:0;stroke:#000000;stroke-width:0.264999;stroke-opacity:1"
         id="rect9154"
         width="135.46666"
         height="135.46666"
         x="40.662655"
         y="76.324272"
         rx="33.866665"
         ry="33.866665" /></clipPath></defs><g
     inkscape:label="Layer 1"
     inkscape:groupmode="layer"
     id="layer1"
     transform="translate(-40.662655,-76.324272)"><g
       id="g9150"
       clip-path="url(#clipPath9152)"><path
         style="display:inline;fill:#0e2440;fill-opacity:1;stroke-width:0.265045;filter:url(#filter7509)"
         d="m 56.06852,211.32666 c -2.450407,-0.53429 -3.937438,-1.07407 -5.657164,-2.05355 -4.46016,-2.54028 -7.882645,-6.8608 -9.269796,-11.70212 l -0.611405,-2.13388 V 143.89662 92.356134 l 0.611405,-2.13388 c 1.832814,-6.396741 7.02555,-11.587293 13.424985,-13.419336 l 2.134777,-0.611148 h 51.562168 51.56217 l 2.13478,0.611148 c 6.39944,1.832043 11.59217,7.022595 13.42498,13.419336 l 0.61141,2.13388 v 51.540486 51.54049 l -0.61141,2.13388 c -1.81147,6.32226 -6.91489,11.47413 -13.28791,13.41403 l -2.00674,0.61085 -51.16453,0.05 c -42.887197,0.0419 -51.438437,-0.01 -52.85772,-0.31919 z m 73.64197,-9.78125 c 1.27733,-0.66026 2.35174,-2.14837 2.92191,-4.04698 0.2967,-0.98799 3.37212,-11.2392 6.83429,-22.7805 l 6.29483,-20.98418 8.49012,-0.0825 8.49014,-0.0825 1.18494,-0.66323 c 1.50119,-0.84024 2.3836,-2.32586 2.38956,-4.02309 0.008,-2.21054 -0.85016,-3.59503 -2.7792,-4.48497 -0.975,-0.44981 -1.90371,-0.48874 -11.5319,-0.48339 -10.98491,0.006 -11.77919,0.0802 -13.03572,1.21606 -0.29747,0.2689 -0.75016,0.90628 -1.00598,1.41639 -0.25582,0.5101 -2.23883,6.85645 -4.40669,14.103 -2.16786,7.24654 -4.01698,13.08956 -4.10915,12.98449 -0.0922,-0.10508 -2.69836,-18.85294 -5.79152,-41.66193 -3.09317,-22.80897 -5.74657,-41.946756 -5.89643,-42.528396 -0.58531,-2.271662 -2.31265,-3.579792 -4.72698,-3.579792 -2.40615,0 -4.23359,1.546279 -4.75705,4.025142 -0.16343,0.77393 -3.61658,16.312806 -7.67366,34.530846 -7.199406,32.32841 -7.384346,33.09508 -7.702695,31.93125 -0.1794,-0.65584 -2.338041,-8.56016 -4.796984,-17.56516 -2.879803,-10.54624 -4.671418,-16.65432 -5.034545,-17.16408 -0.905703,-1.2714 -2.452891,-1.91655 -4.279523,-1.78448 -1.634899,0.11822 -2.545209,0.60579 -3.488279,1.8684 -0.286763,0.38393 -2.448777,5.50411 -4.804473,11.37819 l -4.283086,10.68012 -6.346153,0.1325 c -6.791372,0.14179 -7.201608,0.22036 -8.515578,1.63101 -1.998642,2.14569 -1.359837,5.91736 1.249584,7.37789 1.168051,0.65376 1.285086,0.66448 8.210122,0.75139 8.188149,0.10277 9.981065,-0.0324 11.184828,-0.84328 1.313661,-0.88491 1.846509,-1.85877 4.083649,-7.46348 1.13354,-2.83986 2.128429,-5.16229 2.210864,-5.16095 0.08244,0.001 2.523378,8.73606 5.424318,19.41049 2.900938,10.67443 5.494515,19.84832 5.763503,20.38642 1.591073,3.18288 6.269986,3.48844 8.184183,0.53447 0.537121,-0.82889 1.921917,-6.69771 7.415315,-31.42646 4.12532,-18.57029 6.82865,-30.21978 6.9444,-29.92565 0.10426,0.26487 2.59244,18.17942 5.52929,39.81009 2.93686,21.63068 5.45654,39.63673 5.59929,40.01345 0.32488,0.85738 1.17915,1.80012 2.21248,2.44163 0.97145,0.60309 3.28254,0.66249 4.34798,0.11177 z"
         id="path4999" /><path
         style="display:inline;fill:#1a4983;fill-opacity:1;stroke-width:0.265045"
         d="m 56.06852,211.32666 c -2.450407,-0.53429 -3.937438,-1.07407 -5.657164,-2.05355 -4.46016,-2.54028 -7.882645,-6.8608 -9.269796,-11.70212 l -0.611405,-2.13388 V 143.89662 92.356134 l 0.611405,-2.13388 c 1.832814,-6.396741 7.02555,-11.587293 13.424985,-13.419336 l 2.134777,-0.611148 h 51.562168 51.56217 l 2.13478,0.611148 c 6.39944,1.832043 11.59217,7.022595 13.42498,13.419336 l 0.61141,2.13388 v 51.540486 51.54049 l -0.61141,2.13388 c -1.81147,6.32226 -6.91489,11.47413 -13.28791,13.41403 l -2.00674,0.61085 -51.16453,0.05 c -42.887197,0.0419 -51.438437,-0.01 -52.85772,-0.31919 z m 73.64197,-9.78125 c 1.27733,-0.66026 2.35174,-2.14837 2.92191,-4.04698 0.2967,-0.98799 3.37212,-11.2392 6.83429,-22.7805 l 6.29483,-20.98418 8.49012,-0.0825 8.49014,-0.0825 1.18494,-0.66323 c 1.50119,-0.84024 2.3836,-2.32586 2.38956,-4.02309 0.008,-2.21054 -0.85016,-3.59503 -2.7792,-4.48497 -0.975,-0.44981 -1.90371,-0.48874 -11.5319,-0.48339 -10.98491,0.006 -11.77919,0.0802 -13.03572,1.21606 -0.29747,0.2689 -0.75016,0.90628 -1.00598,1.41639 -0.25582,0.5101 -2.23883,6.85645 -4.40669,14.103 -2.16786,7.24654 -4.01698,13.08956 -4.10915,12.98449 -0.0922,-0.10508 -2.69836,-18.85294 -5.79152,-41.66193 -3.09317,-22.80897 -5.74657,-41.946756 -5.89643,-42.528396 -0.58531,-2.271662 -2.31265,-3.579792 -4.72698,-3.579792 -2.40615,0 -4.23359,1.546279 -4.75705,4.025142 -0.16343,0.77393 -3.61658,16.312806 -7.67366,34.530846 -7.199406,32.32841 -7.384346,33.09508 -7.702695,31.93125 -0.1794,-0.65584 -2.338041,-8.56016 -4.796984,-17.56516 -2.879803,-10.54624 -4.671418,-16.65432 -5.034545,-17.16408 -0.905703,-1.2714 -2.452891,-1.91655 -4.279523,-1.78448 -1.634899,0.11822 -2.545209,0.60579 -3.488279,1.8684 -0.286763,0.38393 -2.448777,5.50411 -4.804473,11.37819 l -4.283086,10.68012 -6.346153,0.1325 c -6.791372,0.14179 -7.201608,0.22036 -8.515578,1.63101 -1.998642,2.14569 -1.359837,5.91736 1.249584,7.37789 1.168051,0.65376 1.285086,0.66448 8.210122,0.75139 8.188149,0.10277 9.981065,-0.0324 11.184828,-0.84328 1.313661,-0.88491 1.846509,-1.85877 4.083649,-7.46348 1.13354,-2.83986 2.128429,-5.16229 2.210864,-5.16095 0.08244,0.001 2.523378,8.73606 5.424318,19.41049 2.900938,10.67443 5.494515,19.84832 5.763503,20.38642 1.591073,3.18288 6.269986,3.48844 8.184183,0.53447 0.537121,-0.82889 1.921917,-6.69771 7.415315,-31.42646 4.12532,-18.57029 6.82865,-30.21978 6.9444,-29.92565 0.10426,0.26487 2.59244,18.17942 5.52929,39.81009 2.93686,21.63068 5.45654,39.63673 5.59929,40.01345 0.32488,0.85738 1.17915,1.80012 2.21248,2.44163 0.97145,0.60309 3.28254,0.66249 4.34798,0.11177 z"
         id="path5001" /><path
         style="display:inline;fill:#2a75d4;fill-opacity:0.801609;stroke-width:0.265045;filter:url(#filter6208)"
         d="m 56.06852,211.32666 c -2.450407,-0.53429 -3.937438,-1.07407 -5.657164,-2.05355 -4.46016,-2.54028 -7.882645,-6.8608 -9.269796,-11.70212 l -0.611405,-2.13388 V 143.89662 92.356134 l 0.611405,-2.13388 c 1.832814,-6.396741 7.02555,-11.587293 13.424985,-13.419336 l 2.134777,-0.611148 h 51.562168 51.56217 l 2.13478,0.611148 c 6.39944,1.832043 11.59217,7.022595 13.42498,13.419336 l 0.61141,2.13388 v 51.540486 51.54049 l -0.61141,2.13388 c -1.81147,6.32226 -6.91489,11.47413 -13.28791,13.41403 l -2.00674,0.61085 -51.16453,0.05 c -42.887197,0.0419 -51.438437,-0.01 -52.85772,-0.31919 z m 73.64197,-9.78125 c 1.27733,-0.66026 2.35174,-2.14837 2.92191,-4.04698 0.2967,-0.98799 3.37212,-11.2392 6.83429,-22.7805 l 6.29483,-20.98418 8.49012,-0.0825 8.49014,-0.0825 1.18494,-0.66323 c 1.50119,-0.84024 2.3836,-2.32586 2.38956,-4.02309 0.008,-2.21054 -0.85016,-3.59503 -2.7792,-4.48497 -0.975,-0.44981 -1.90371,-0.48874 -11.5319,-0.48339 -10.98491,0.006 -11.77919,0.0802 -13.03572,1.21606 -0.29747,0.2689 -0.75016,0.90628 -1.00598,1.41639 -0.25582,0.5101 -2.23883,6.85645 -4.40669,14.103 -2.16786,7.24654 -4.01698,13.08956 -4.10915,12.98449 -0.0922,-0.10508 -2.69836,-18.85294 -5.79152,-41.66193 -3.09317,-22.80897 -5.74657,-41.946756 -5.89643,-42.528396 -0.58531,-2.271662 -2.31265,-3.579792 -4.72698,-3.579792 -2.40615,0 -4.23359,1.546279 -4.75705,4.025142 -0.16343,0.77393 -3.61658,16.312806 -7.67366,34.530846 -7.199406,32.32841 -7.384346,33.09508 -7.702695,31.93125 -0.1794,-0.65584 -2.338041,-8.56016 -4.796984,-17.56516 -2.879803,-10.54624 -4.671418,-16.65432 -5.034545,-17.16408 -0.905703,-1.2714 -2.452891,-1.91655 -4.279523,-1.78448 -1.634899,0.11822 -2.545209,0.60579 -3.488279,1.8684 -0.286763,0.38393 -2.448777,5.50411 -4.804473,11.37819 l -4.283086,10.68012 -6.346153,0.1325 c -6.791372,0.14179 -7.201608,0.22036 -8.515578,1.63101 -1.998642,2.14569 -1.359837,5.91736 1.249584,7.37789 1.168051,0.65376 1.285086,0.66448 8.210122,0.75139 8.188149,0.10277 9.981065,-0.0324 11.184828,-0.84328 1.313661,-0.88491 1.846509,-1.85877 4.083649,-7.46348 1.13354,-2.83986 2.128429,-5.16229 2.210864,-5.16095 0.08244,0.001 2.523378,8.73606 5.424318,19.41049 2.900938,10.67443 5.494515,19.84832 5.763503,20.38642 1.591073,3.18288 6.269986,3.48844 8.184183,0.53447 0.537121,-0.82889 1.921917,-6.69771 7.415315,-31.42646 4.12532,-18.57029 6.82865,-30.21978 6.9444,-29.92565 0.10426,0.26487 2.59244,18.17942 5.52929,39.81009 2.93686,21.63068 5.45654,39.63673 5.59929,40.01345 0.32488,0.85738 1.17915,1.80012 2.21248,2.44163 0.97145,0.60309 3.28254,0.66249 4.34798,0.11177 z"
         id="path5003" /></g></g></svg>
